<svg width="32" height="21" viewBox="0 0 32 21" fill="none" xmlns="http://www.w3.org/2000/svg">
<path d="M15.5757 5.44795L5.33376 12.5667V20.2499C5.33376 20.4489 5.4274 20.6396 5.59408 20.7803C5.76077 20.921 5.98685 21 6.22258 21L12.4477 20.9864C12.6826 20.9854 12.9075 20.9059 13.0733 20.7654C13.239 20.6248 13.332 20.4346 13.332 20.2363V15.7494C13.332 15.5505 13.4257 15.3597 13.5924 15.219C13.759 15.0784 13.9851 14.9993 14.2208 14.9993H17.7761C18.0119 14.9993 18.2379 15.0784 18.4046 15.219C18.5713 15.3597 18.665 15.5505 18.665 15.7494V20.233C18.6646 20.3317 18.6873 20.4295 18.7318 20.5208C18.7763 20.6121 18.8417 20.695 18.9243 20.7649C19.0069 20.8348 19.105 20.8903 19.213 20.9281C19.321 20.966 19.4368 20.9855 19.5538 20.9855L25.7766 21C26.0124 21 26.2384 20.921 26.4051 20.7803C26.5718 20.6396 26.6654 20.4489 26.6654 20.2499V12.5616L16.4257 5.44795C16.3053 5.36606 16.1553 5.32141 16.0007 5.32141C15.8461 5.32141 15.6961 5.36606 15.5757 5.44795ZM31.7539 10.2865L27.1099 7.05594V0.562563C27.1099 0.413362 27.0396 0.270272 26.9146 0.164771C26.7896 0.0592699 26.62 0 26.4432 0H23.3324C23.1556 0 22.986 0.0592699 22.861 0.164771C22.736 0.270272 22.6658 0.413362 22.6658 0.562563V3.96654L17.6922 0.513339C17.215 0.181886 16.616 0.00066258 15.9979 0.00066258C15.3798 0.00066258 14.7809 0.181886 14.3036 0.513339L0.241925 10.2865C0.174423 10.3335 0.118576 10.3914 0.0775751 10.4567C0.0365738 10.522 0.0112218 10.5935 0.00296764 10.6671C-0.00528651 10.7406 0.00371897 10.8149 0.0294695 10.8855C0.0552201 10.9561 0.097211 11.0218 0.153043 11.0787L1.5696 12.532C1.62528 12.5892 1.69377 12.6365 1.77114 12.6712C1.84851 12.706 1.93325 12.7276 2.02051 12.7347C2.10776 12.7418 2.19582 12.7343 2.27963 12.7126C2.36345 12.6909 2.44139 12.6555 2.50897 12.6084L15.5757 3.52586C15.6961 3.44397 15.8461 3.39932 16.0007 3.39932C16.1553 3.39932 16.3053 3.44397 16.4257 3.52586L29.493 12.6084C29.5605 12.6556 29.6383 12.691 29.722 12.7127C29.8057 12.7345 29.8936 12.7421 29.9808 12.7351C30.068 12.7281 30.1527 12.7067 30.2301 12.6721C30.3075 12.6375 30.376 12.5904 30.4318 12.5334L31.8484 11.0801C31.9042 11.0229 31.946 10.9569 31.9714 10.8859C31.9969 10.815 32.0054 10.7405 31.9967 10.6667C31.9879 10.593 31.9619 10.5214 31.9203 10.4562C31.8786 10.3909 31.8221 10.3332 31.7539 10.2865Z" fill="#ACACAC"/>
</svg>
