<svg width="21" height="16" viewBox="0 0 21 16" fill="none" xmlns="http://www.w3.org/2000/svg">
<path d="M12.1406 11.9994H8.85938C8.31387 11.9994 7.875 11.665 7.875 11.2493V5.99854H4.27793C3.54785 5.99854 3.18281 5.32656 3.69961 4.93275L9.93809 0.175807C10.2457 -0.0586023 10.7502 -0.0586023 11.0578 0.175807L17.3004 4.93275C17.8172 5.32656 17.4521 5.99854 16.7221 5.99854H13.125V11.2493C13.125 11.665 12.6861 11.9994 12.1406 11.9994ZM21 11.7494V15.2499C21 15.6656 20.5611 16 20.0156 16H0.984375C0.438867 16 0 15.6656 0 15.2499V11.7494C0 11.3337 0.438867 10.9993 0.984375 10.9993H6.5625V11.2493C6.5625 12.2151 7.59199 12.9996 8.85938 12.9996H12.1406C13.408 12.9996 14.4375 12.2151 14.4375 11.2493V10.9993H20.0156C20.5611 10.9993 21 11.3337 21 11.7494ZM15.9141 14.4998C15.9141 14.156 15.5449 13.8747 15.0938 13.8747C14.6426 13.8747 14.2734 14.156 14.2734 14.4998C14.2734 14.8436 14.6426 15.1249 15.0938 15.1249C15.5449 15.1249 15.9141 14.8436 15.9141 14.4998ZM18.5391 14.4998C18.5391 14.156 18.1699 13.8747 17.7188 13.8747C17.2676 13.8747 16.8984 14.156 16.8984 14.4998C16.8984 14.8436 17.2676 15.1249 17.7188 15.1249C18.1699 15.1249 18.5391 14.8436 18.5391 14.4998Z" fill="#ACACAC"/>
</svg>
