<svg width="24" height="28" viewBox="0 0 24 28" fill="none" xmlns="http://www.w3.org/2000/svg">
<path d="M4 0C1.79375 0 0 1.56953 0 3.5V24.5C0 26.4305 1.79375 28 4 28H20C22.2062 28 24 26.4305 24 24.5V8.75H16C14.8938 8.75 14 7.96797 14 7V0H4ZM16 0V7H24L16 0ZM7 14H17C17.55 14 18 14.3938 18 14.875C18 15.3562 17.55 15.75 17 15.75H7C6.45 15.75 6 15.3562 6 14.875C6 14.3938 6.45 14 7 14ZM7 17.5H17C17.55 17.5 18 17.8937 18 18.375C18 18.8563 17.55 19.25 17 19.25H7C6.45 19.25 6 18.8563 6 18.375C6 17.8937 6.45 17.5 7 17.5ZM7 21H17C17.55 21 18 21.3937 18 21.875C18 22.3563 17.55 22.75 17 22.75H7C6.45 22.75 6 22.3563 6 21.875C6 21.3937 6.45 21 7 21Z" fill="white"/>
</svg>
