<svg width="33" height="24" viewBox="0 0 33 24" fill="none" xmlns="http://www.w3.org/2000/svg">
<path d="M3.66667 0C1.64427 0 0 1.79375 0 4V20C0 22.2062 1.64427 24 3.66667 24H29.3333C31.3557 24 33 22.2062 33 20V4C33 1.79375 31.3557 0 29.3333 0H3.66667ZM15.5833 8H28.4167C28.9208 8 29.3333 8.45 29.3333 9C29.3333 9.55 28.9208 10 28.4167 10H15.5833C15.0792 10 14.6667 9.55 14.6667 9C14.6667 8.45 15.0792 8 15.5833 8ZM14.6667 15C14.6667 14.45 15.0792 14 15.5833 14H28.4167C28.9208 14 29.3333 14.45 29.3333 15C29.3333 15.55 28.9208 16 28.4167 16H15.5833C15.0792 16 14.6667 15.55 14.6667 15ZM9.39583 5.5V6.36875C9.82552 6.44375 10.2323 6.55 10.6047 6.6625C11.2177 6.8375 11.5786 7.525 11.4182 8.19375C11.2578 8.8625 10.6276 9.25625 10.0146 9.08125C9.38438 8.9 8.77708 8.76875 8.22708 8.75625C7.77448 8.75 7.31042 8.86875 6.99531 9.06875C6.72031 9.24375 6.6401 9.41875 6.6401 9.65C6.6401 9.7625 6.64583 9.86875 6.94375 10.0688C7.30469 10.3063 7.83177 10.4875 8.5651 10.725L8.60521 10.7375C9.24687 10.95 10.0719 11.2188 10.7307 11.675C11.4698 12.1813 12.1229 13.0062 12.1401 14.275C12.1573 15.5812 11.5385 16.5312 10.7193 17.0875C10.3068 17.3687 9.84844 17.5437 9.3901 17.65V18.5C9.3901 19.1875 8.87448 19.75 8.24427 19.75C7.61406 19.75 7.09844 19.1875 7.09844 18.5V17.5875C6.50833 17.45 5.9526 17.2437 5.48281 17.0625C5.3625 17.0187 5.24792 16.975 5.13333 16.9312C4.53177 16.7125 4.21094 16.0063 4.41146 15.35C4.61198 14.6938 5.25938 14.3438 5.86094 14.5625C6.00417 14.6125 6.14167 14.6687 6.27344 14.7125C7.0526 15 7.64844 15.2188 8.28438 15.2437C8.77708 15.2625 9.22969 15.1438 9.51042 14.95C9.74531 14.7938 9.85417 14.6063 9.84844 14.2938C9.84844 14.1125 9.8026 13.9812 9.51042 13.7812C9.14948 13.5312 8.62813 13.35 7.90625 13.1125L7.80885 13.0812C7.18438 12.875 6.39948 12.6187 5.76927 12.2062C5.04167 11.725 4.3599 10.925 4.35417 9.6625C4.34844 8.34375 5.03021 7.43125 5.83229 6.91875C6.2276 6.6625 6.66302 6.49375 7.10417 6.3875V5.5C7.10417 4.8125 7.61979 4.25 8.25 4.25C8.88021 4.25 9.39583 4.8125 9.39583 5.5Z" fill="white"/>
</svg>
