<svg width="31" height="26" viewBox="0 0 31 26" fill="none" xmlns="http://www.w3.org/2000/svg">
<path d="M3.44444 0.25C1.54462 0.25 0 2.15586 0 4.5V21.5C0 23.8441 1.54462 25.75 3.44444 25.75H27.5556C29.4554 25.75 31 23.8441 31 21.5V4.5C31 2.15586 29.4554 0.25 27.5556 0.25H3.44444ZM6.02778 10.875H14.6389C15.1125 10.875 15.5 11.3531 15.5 11.9375C15.5 12.5219 15.1125 13 14.6389 13H6.02778C5.55417 13 5.16667 12.5219 5.16667 11.9375C5.16667 11.3531 5.55417 10.875 6.02778 10.875ZM5.16667 18.3125C5.16667 17.7281 5.55417 17.25 6.02778 17.25H24.9722C25.4458 17.25 25.8333 17.7281 25.8333 18.3125C25.8333 18.8969 25.4458 19.375 24.9722 19.375H6.02778C5.55417 19.375 5.16667 18.8969 5.16667 18.3125ZM20.2361 6.625H24.5417C25.2575 6.625 25.8333 7.33555 25.8333 8.21875V11.4062C25.8333 12.2895 25.2575 13 24.5417 13H20.2361C19.5203 13 18.9444 12.2895 18.9444 11.4062V8.21875C18.9444 7.33555 19.5203 6.625 20.2361 6.625Z" fill="white"/>
</svg>
