<svg width="20" height="21" viewBox="0 0 20 21" fill="none" xmlns="http://www.w3.org/2000/svg">
<path d="M7.14286 4.59375C7.14286 3.1459 8.42411 1.96875 10 1.96875C11.5759 1.96875 12.8571 3.1459 12.8571 4.59375V6.5625H7.14286V4.59375ZM5 6.5625H2.14286C0.959821 6.5625 0 7.44434 0 8.53125V17.0625C0 19.2363 1.91964 21 4.28571 21H15.7143C18.0804 21 20 19.2363 20 17.0625V8.53125C20 7.44434 19.0402 6.5625 17.8571 6.5625H15V4.59375C15 2.05488 12.7634 0 10 0C7.23661 0 5 2.05488 5 4.59375V6.5625ZM6.07143 8.53125C6.35559 8.53125 6.62811 8.63496 6.82904 8.81957C7.02997 9.00417 7.14286 9.25455 7.14286 9.51562C7.14286 9.7767 7.02997 10.0271 6.82904 10.2117C6.62811 10.3963 6.35559 10.5 6.07143 10.5C5.78727 10.5 5.51475 10.3963 5.31381 10.2117C5.11288 10.0271 5 9.7767 5 9.51562C5 9.25455 5.11288 9.00417 5.31381 8.81957C5.51475 8.63496 5.78727 8.53125 6.07143 8.53125ZM12.8571 9.51562C12.8571 9.25455 12.97 9.00417 13.171 8.81957C13.3719 8.63496 13.6444 8.53125 13.9286 8.53125C14.2127 8.53125 14.4853 8.63496 14.6862 8.81957C14.8871 9.00417 15 9.25455 15 9.51562C15 9.7767 14.8871 10.0271 14.6862 10.2117C14.4853 10.3963 14.2127 10.5 13.9286 10.5C13.6444 10.5 13.3719 10.3963 13.171 10.2117C12.97 10.0271 12.8571 9.7767 12.8571 9.51562Z" fill="white"/>
</svg>
