<svg width="23" height="22" viewBox="0 0 23 22" fill="none" xmlns="http://www.w3.org/2000/svg">
<path d="M11.5 12.375C15.0713 12.375 17.9688 9.60352 17.9688 6.1875C17.9688 2.77148 15.0713 0 11.5 0C7.92871 0 5.03125 2.77148 5.03125 6.1875C5.03125 9.60352 7.92871 12.375 11.5 12.375ZM17.25 13.75H14.7748C13.7775 14.1883 12.668 14.4375 11.5 14.4375C10.332 14.4375 9.22695 14.1883 8.2252 13.75H5.75C2.57402 13.75 0 16.2121 0 19.25V19.9375C0 21.0762 0.96582 22 2.15625 22H20.8438C22.0342 22 23 21.0762 23 19.9375V19.25C23 16.2121 20.426 13.75 17.25 13.75Z" fill="#ACACAC"/>
</svg>
