<svg width="21" height="21" viewBox="0 0 21 21" fill="none" xmlns="http://www.w3.org/2000/svg">
<g clip-path="url(#clip0_128_428)">
<path d="M0 3.28125C0 1.46836 1.46836 0 3.28125 0H17.7188C19.5316 0 21 1.46836 21 3.28125V15.0938C21 16.1684 20.4832 17.1199 19.6875 17.7188V19.6875C19.6875 20.4135 19.101 21 18.375 21H17.0625C16.3365 21 15.75 20.4135 15.75 19.6875V18.375H5.25V19.6875C5.25 20.4135 4.66348 21 3.9375 21H2.625C1.89902 21 1.3125 20.4135 1.3125 19.6875V17.7188C0.516797 17.1199 0 16.1684 0 15.0938V3.28125ZM5.32793 6.24258L4.59375 9.1875H16.4062L15.6721 6.24258C15.5244 5.66016 14.9994 5.25 14.3965 5.25H6.60352C6.00059 5.25 5.47559 5.66016 5.33203 6.24258H5.32793ZM5.25 13.125C5.25 12.7769 5.11172 12.4431 4.86558 12.1969C4.61944 11.9508 4.2856 11.8125 3.9375 11.8125C3.5894 11.8125 3.25556 11.9508 3.00942 12.1969C2.76328 12.4431 2.625 12.7769 2.625 13.125C2.625 13.4731 2.76328 13.8069 3.00942 14.0531C3.25556 14.2992 3.5894 14.4375 3.9375 14.4375C4.2856 14.4375 4.61944 14.2992 4.86558 14.0531C5.11172 13.8069 5.25 13.4731 5.25 13.125ZM17.0625 14.4375C17.4106 14.4375 17.7444 14.2992 17.9906 14.0531C18.2367 13.8069 18.375 13.4731 18.375 13.125C18.375 12.7769 18.2367 12.4431 17.9906 12.1969C17.7444 11.9508 17.4106 11.8125 17.0625 11.8125C16.7144 11.8125 16.3806 11.9508 16.1344 12.1969C15.8883 12.4431 15.75 12.7769 15.75 13.125C15.75 13.4731 15.8883 13.8069 16.1344 14.0531C16.3806 14.2992 16.7144 14.4375 17.0625 14.4375Z" fill="white"/>
</g>
<defs>
<clipPath id="clip0_128_428">
<rect width="21" height="21" fill="white"/>
</clipPath>
</defs>
</svg>
