<svg width="32" height="22" viewBox="0 0 32 22" fill="none" xmlns="http://www.w3.org/2000/svg">
<g clip-path="url(#clip0_128_430)">
<path d="M0 2.0625C0 0.923828 1.075 0 2.4 0H18.4C19.725 0 20.8 0.923828 20.8 2.0625V4.125H23.335C24.185 4.125 25 4.41289 25.6 4.92852L29.465 8.25C30.065 8.76562 30.4 9.46602 30.4 10.1965V11V12.375V15.125C31.285 15.125 32 15.7395 32 16.5C32 17.2605 31.285 17.875 30.4 17.875H28.8C28.8 20.1523 26.65 22 24 22C21.35 22 19.2 20.1523 19.2 17.875H12.8C12.8 20.1523 10.65 22 8 22C5.35 22 3.2 20.1523 3.2 17.875H2.4C1.075 17.875 0 16.9512 0 15.8125V2.0625ZM20.8 11H27.2V10.1965L23.335 6.875H20.8V11ZM8 19.9375C8.63652 19.9375 9.24697 19.7202 9.69706 19.3334C10.1471 18.9466 10.4 18.422 10.4 17.875C10.4 17.328 10.1471 16.8034 9.69706 16.4166C9.24697 16.0298 8.63652 15.8125 8 15.8125C7.36348 15.8125 6.75303 16.0298 6.30294 16.4166C5.85286 16.8034 5.6 17.328 5.6 17.875C5.6 18.422 5.85286 18.9466 6.30294 19.3334C6.75303 19.7202 7.36348 19.9375 8 19.9375ZM26.4 17.875C26.4 17.328 26.1471 16.8034 25.6971 16.4166C25.247 16.0298 24.6365 15.8125 24 15.8125C23.3635 15.8125 22.753 16.0298 22.3029 16.4166C21.8529 16.8034 21.6 17.328 21.6 17.875C21.6 18.422 21.8529 18.9466 22.3029 19.3334C22.753 19.7202 23.3635 19.9375 24 19.9375C24.6365 19.9375 25.247 19.7202 25.6971 19.3334C26.1471 18.9466 26.4 18.422 26.4 17.875ZM12.85 4.08203C12.38 3.67812 11.62 3.67812 11.155 4.08203C10.69 4.48594 10.685 5.13906 11.155 5.53867L13.105 7.21445H4.8C4.135 7.21445 3.6 7.67422 3.6 8.2457C3.6 8.81719 4.135 9.27695 4.8 9.27695H13.105L11.155 10.9527C10.685 11.3566 10.685 12.0098 11.155 12.4094C11.625 12.809 12.385 12.8133 12.85 12.4094L16.85 8.97188C17.32 8.56797 17.32 7.91484 16.85 7.51523L12.85 4.08203Z" fill="white"/>
</g>
<defs>
<clipPath id="clip0_128_430">
<rect width="32" height="22" fill="white"/>
</clipPath>
</defs>
</svg>
