<svg width="24" height="23" viewBox="0 0 24 23" fill="none" xmlns="http://www.w3.org/2000/svg">
<path d="M23.6935 14.2637L21.5402 13.123C21.7576 12.0472 21.7576 10.9436 21.5402 9.86775L23.6935 8.72703C23.9411 8.59719 24.0523 8.32824 23.9715 8.07784C23.4104 6.42704 22.4551 4.9339 21.2066 3.69116C21.0145 3.50104 20.7012 3.45467 20.4585 3.58451L18.3053 4.72523C17.4006 4.01112 16.3593 3.4593 15.2322 3.09761V0.820806C15.2322 0.56113 15.035 0.333913 14.757 0.278268C12.902 -0.101972 11.0015 -0.083424 9.23748 0.278268C8.95948 0.333913 8.76235 0.56113 8.76235 0.820806V3.10225C7.64024 3.46858 6.59901 4.02039 5.68919 4.72986L3.54101 3.58914C3.29334 3.4593 2.98501 3.50104 2.79294 3.6958C1.54447 4.9339 0.589163 6.42703 0.0281093 8.08247C-0.0578179 8.33287 0.0584365 8.60182 0.306109 8.73166L2.45934 9.87239C2.242 10.9482 2.242 12.0518 2.45934 13.1276L0.306109 14.2683C0.0584365 14.3982 -0.0527633 14.6671 0.0281093 14.9175C0.589163 16.5683 1.54447 18.0615 2.79294 19.3042C2.98501 19.4943 3.29839 19.5407 3.54101 19.4109L5.69425 18.2701C6.59901 18.9842 7.64024 19.5361 8.76741 19.8977V22.1792C8.76741 22.4389 8.96453 22.6661 9.24253 22.7217C11.0975 23.102 12.9981 23.0834 14.7621 22.7217C15.0401 22.6661 15.2372 22.4389 15.2372 22.1792V19.8977C16.3593 19.5314 17.4006 18.9796 18.3104 18.2701L20.4636 19.4109C20.7113 19.5407 21.0196 19.499 21.2117 19.3042C22.4601 18.0661 23.4155 16.573 23.9765 14.9175C24.0523 14.6625 23.9411 14.3935 23.6935 14.2637ZM11.9973 15.205C9.7682 15.205 7.95362 13.5403 7.95362 11.4954C7.95362 9.45041 9.7682 7.7857 11.9973 7.7857C14.2263 7.7857 16.0409 9.45041 16.0409 11.4954C16.0409 13.5403 14.2263 15.205 11.9973 15.205Z" fill="#ADADAD"/>
</svg>
