<svg width="34" height="23" viewBox="0 0 34 23" fill="none" xmlns="http://www.w3.org/2000/svg">
<path d="M33.279 10.6744C33.2304 10.5646 32.0525 7.95159 29.434 5.33305C25.9449 1.84397 21.538 0 16.6875 0C11.837 0 7.4301 1.84397 3.94102 5.33305C1.32247 7.95159 0.139049 10.5688 0.0959398 10.6744C0.0326847 10.8167 0 10.9707 0 11.1264C0 11.2821 0.0326847 11.4361 0.0959398 11.5783C0.144612 11.6882 1.32247 14.2998 3.94102 16.9183C7.4301 20.406 11.837 22.25 16.6875 22.25C21.538 22.25 25.9449 20.406 29.434 16.9183C32.0525 14.2998 33.2304 11.6882 33.279 11.5783C33.3423 11.4361 33.375 11.2821 33.375 11.1264C33.375 10.9707 33.3423 10.8167 33.279 10.6744ZM16.6875 20.025C12.4071 20.025 8.66775 18.4689 5.57222 15.4012C4.30209 14.1381 3.22149 12.6977 2.36405 11.125C3.22126 9.55212 4.30188 8.11176 5.57222 6.84883C8.66775 3.78111 12.4071 2.225 16.6875 2.225C20.9678 2.225 24.7072 3.78111 27.8028 6.84883C29.0754 8.11146 30.1583 9.55181 31.0179 11.125C30.0152 12.9968 25.6473 20.025 16.6875 20.025ZM16.6875 4.45C15.3673 4.45 14.0768 4.84148 12.9791 5.57494C11.8814 6.3084 11.0258 7.35089 10.5206 8.57059C10.0154 9.79029 9.88319 11.1324 10.1407 12.4272C10.3983 13.722 11.034 14.9114 11.9675 15.8449C12.9011 16.7785 14.0904 17.4142 15.3853 17.6717C16.6801 17.9293 18.0222 17.7971 19.2419 17.2919C20.4616 16.7867 21.5041 15.9311 22.2375 14.8334C22.971 13.7357 23.3625 12.4452 23.3625 11.125C23.3606 9.35524 22.6568 7.6585 21.4054 6.40709C20.154 5.15569 18.4572 4.45184 16.6875 4.45ZM16.6875 15.575C15.8074 15.575 14.947 15.314 14.2152 14.825C13.4834 14.3361 12.913 13.6411 12.5762 12.8279C12.2394 12.0148 12.1513 11.1201 12.323 10.2568C12.4947 9.39363 12.9185 8.60072 13.5409 7.97837C14.1632 7.35603 14.9561 6.93221 15.8193 6.7605C16.6826 6.5888 17.5773 6.67693 18.3904 7.01374C19.2036 7.35055 19.8986 7.92091 20.3875 8.65271C20.8765 9.38451 21.1375 10.2449 21.1375 11.125C21.1375 12.3052 20.6686 13.4371 19.8341 14.2716C18.9996 15.1062 17.8677 15.575 16.6875 15.575Z" fill="#ED1B24"/>
</svg>
